<?xml version="1.0" encoding="UTF-8" standalone="no"?>
<svg width="100" height="100" viewBox="0 0 100 100" fill="none" xmlns="http://www.w3.org/2000/svg">
  <circle cx="50" cy="50" r="45" fill="#F5F5F5" />
  <path d="M58.5 40C58.5 44.1421 55.1421 47.5 51 47.5C46.8579 47.5 43.5 44.1421 43.5 40C43.5 35.8579 46.8579 32.5 51 32.5C55.1421 32.5 58.5 35.8579 58.5 40Z" fill="#111827" />
  <path d="M58.5 60C58.5 64.1421 55.1421 67.5 51 67.5C46.8579 67.5 43.5 64.1421 43.5 60C43.5 55.8579 46.8579 52.5 51 52.5C55.1421 52.5 58.5 55.8579 58.5 60Z" fill="#111827" />
  <path d="M78.5 50C78.5 54.1421 75.1421 57.5 71 57.5C66.8579 57.5 63.5 54.1421 63.5 50C63.5 45.8579 66.8579 42.5 71 42.5C75.1421 42.5 78.5 45.8579 78.5 50Z" fill="#111827" />
</svg>